<svg width="30" height="21" viewBox="0 0 30 21" fill="none" xmlns="http://www.w3.org/2000/svg">
<g id="Group 1">
<g id="Group">
<path id="Vector" d="M3.77346 20.8111C3.20026 20.8111 2.7356 20.3464 2.7356 19.7732V2.22387C2.7356 1.65067 3.20026 1.186 3.77346 1.186H8.45149C8.95003 1.186 9.37814 1.54047 9.47114 2.03025L12.5131 18.0505C12.5393 18.1882 12.6596 18.2878 12.7997 18.2878C12.9399 18.2878 13.0602 18.1882 13.0863 18.0505L16.1283 2.03026C16.2213 1.54047 16.6494 1.186 17.148 1.186H21.826C22.3992 1.186 22.8639 1.65067 22.8639 2.22387V19.7732C22.8639 20.3464 22.3992 20.8111 21.826 20.8111H20.4665C19.8933 20.8111 19.4286 20.3464 19.4286 19.7732V4.16982C19.4286 4.02383 19.3103 3.90548 19.1643 3.90548C19.0374 3.90548 18.9284 3.99568 18.9046 4.12035L15.8858 19.9674C15.7925 20.4569 15.3645 20.8111 14.8662 20.8111H10.7332C10.2349 20.8111 9.80696 20.4569 9.71371 19.9674L6.69483 4.12035C6.67108 3.99568 6.56207 3.90548 6.43516 3.90548C6.28917 3.90548 6.17082 4.02383 6.17082 4.16982V19.7732C6.17082 20.3464 5.70615 20.8111 5.13295 20.8111H3.77346Z" fill="white" fill-opacity="0.4"/>
<g id="Vector_2" filter="url(#filter0_i_1088_3758)">
<path d="M1.74148 20.8111C1.16828 20.8111 0.703613 20.3465 0.703613 19.7733V1.92202C0.703613 1.34882 1.16828 0.884155 1.74148 0.884155H6.82584C7.32119 0.884155 7.74749 1.2342 7.84387 1.72008L11.0727 17.9978C11.1017 18.1439 11.2299 18.2491 11.3788 18.2491C11.5277 18.2491 11.6559 18.1439 11.6848 17.9978L14.9137 1.72008C15.0101 1.2342 15.4364 0.884155 15.9317 0.884155H21.0161C21.5893 0.884155 22.054 1.34882 22.054 1.92202V19.7733C22.054 20.3465 21.5893 20.8111 21.0161 20.8111H19.448C18.8748 20.8111 18.4102 20.3465 18.4102 19.7733V3.92692C18.4102 3.77148 18.2842 3.64547 18.1287 3.64547C17.9945 3.64547 17.8789 3.7403 17.8527 3.87198L14.6479 19.9758C14.5513 20.4614 14.1251 20.8111 13.63 20.8111H9.12754C8.63244 20.8111 8.20627 20.4614 8.10964 19.9759L4.90489 3.87198C4.87868 3.7403 4.76311 3.64547 4.62885 3.64547C4.47341 3.64547 4.3474 3.77148 4.3474 3.92692V19.7733C4.3474 20.3465 3.88273 20.8111 3.30954 20.8111H1.74148Z" fill="white"/>
</g>
</g>
<circle id="Ellipse 4" cx="27.8956" cy="18.798" r="2.01259" fill="white"/>
</g>
<defs>
<filter id="filter0_i_1088_3758" x="0.703613" y="0.884155" width="24.4639" height="23.0406" filterUnits="userSpaceOnUse" color-interpolation-filters="sRGB">
<feFlood flood-opacity="0" result="BackgroundImageFix"/>
<feBlend mode="normal" in="SourceGraphic" in2="BackgroundImageFix" result="shape"/>
<feColorMatrix in="SourceAlpha" type="matrix" values="0 0 0 0 0 0 0 0 0 0 0 0 0 0 0 0 0 0 127 0" result="hardAlpha"/>
<feOffset dx="3.11359" dy="3.11359"/>
<feGaussianBlur stdDeviation="3.16549"/>
<feComposite in2="hardAlpha" operator="arithmetic" k2="-1" k3="1"/>
<feColorMatrix type="matrix" values="0 0 0 0 0 0 0 0 0 0 0 0 0 0 0 0 0 0 0.1 0"/>
<feBlend mode="normal" in2="shape" result="effect1_innerShadow_1088_3758"/>
</filter>
</defs>
</svg>
